<?xml version="1.0" encoding="UTF-8"?>
<svg version="1.1" xmlns="http://www.w3.org/2000/svg" width="1024" height="1024">
<path d="M0 0 C337.92 0 675.84 0 1024 0 C1024 337.92 1024 675.84 1024 1024 C686.08 1024 348.16 1024 0 1024 C0 686.08 0 348.16 0 0 Z " fill="#FEFEFE" transform="translate(0,0)"/>
<path d="M0 0 C188.67599411 0 188.67599411 0 221.7734375 31.65234375 C242.26219022 53.11825237 250.8223078 80.6279013 250.52587891 109.93286133 C250.2465545 119.40825342 248.97622962 128.01314378 246 137 C245.42185547 138.74603516 245.42185547 138.74603516 244.83203125 140.52734375 C236.51045636 163.60692202 220.44644089 181.4820731 198.69921875 192.703125 C195.17438363 194.32781721 191.68173564 195.77275479 188 197 C189.26993751 201.07407048 190.78363585 204.76623662 192.765625 208.54296875 C193.31879395 209.60290039 193.87196289 210.66283203 194.44189453 211.75488281 C195.03856934 212.88764648 195.63524414 214.02041016 196.25 215.1875 C196.87790668 216.38745196 197.50533955 217.58765196 198.13232422 218.78808594 C199.43569333 221.28268906 200.74109362 223.7762135 202.04785156 226.26904297 C205.09424991 232.08528906 208.10717972 237.91889309 211.125 243.75 C215.88828228 252.94075975 220.66873357 262.12240005 225.46142578 271.29785156 C229.32161502 278.69133344 233.16306285 286.09442832 237 293.5 C241.45036971 302.08748821 245.90469461 310.67286933 250.375 319.25 C250.86387695 320.1886792 251.35275391 321.1273584 251.85644531 322.09448242 C254.05458212 326.30682878 256.26604057 330.51047799 258.5234375 334.69140625 C258.90322754 335.39555664 259.28301758 336.09970703 259.67431641 336.82519531 C260.3679384 338.10664856 261.06525863 339.38611027 261.76708984 340.66308594 C264 344.78185923 264 344.78185923 264 347 C237.93 347 211.86 347 185 347 C179.4003125 335.8315625 179.4003125 335.8315625 173.6875 324.4375 C172.53467529 322.14095459 171.38185059 319.84440918 170.1940918 317.47827148 C164.64275292 306.40024873 159.18966663 295.2832861 153.86894226 284.09263611 C150.18771946 276.35974902 146.39042003 268.69098165 142.53182983 261.04534912 C135.88102041 247.86175357 129.38848957 234.61561568 123.08740234 221.26074219 C121.99550184 218.99064818 120.85601186 216.74945608 119.70703125 214.5078125 C118 211 118 211 118 209 C101.5 209 85 209 68 209 C68 254.54 68 300.08 68 347 C45.56 347 23.12 347 0 347 C0 232.49 0 117.98 0 0 Z " fill="#50575D" transform="translate(247,541)"/>
<path d="M0 0 C1.68222656 0.53753906 1.68222656 0.53753906 3.3984375 1.0859375 C23.24892199 7.73250422 39.13935942 18.59937714 55 32 C53.5592571 35.28128931 51.77420843 37.49731195 49.2722168 40.05004883 C48.12543709 41.22565117 48.12543709 41.22565117 46.95549011 42.42500305 C46.12842056 43.26057236 45.30135101 44.09614166 44.44921875 44.95703125 C43.59826126 45.81938889 42.74730377 46.68174652 41.87055969 47.57023621 C40.07027428 49.38940202 38.26707143 51.20568464 36.46118164 53.01928711 C33.6944989 55.80545181 30.94985079 58.61219232 28.20507812 61.41992188 C26.45444778 63.18360564 24.7025372 64.94601977 22.94921875 66.70703125 C22.12822189 67.55272171 21.30722504 68.39841217 20.46134949 69.26972961 C19.6873732 70.0377037 18.91339691 70.8056778 18.1159668 71.59692383 C17.44027145 72.27991043 16.76457611 72.96289703 16.06840515 73.6665802 C14 75 14 75 11.36116028 74.79692078 C8.69824948 73.89815547 7.2763278 72.80510775 5.1875 70.9375 C-15.87160723 53.93629383 -43.93650629 51.38390986 -70 53 C-82.54545427 54.46187926 -94.48458185 59.33345778 -103.2109375 68.65234375 C-111.06806462 78.96267868 -112.96672232 89.31006755 -112 102 C-109.83152538 111.76433144 -105.17035847 119.10187617 -96.9375 124.75 C-83.18829283 132.90316868 -66.33624119 134.46954595 -50.74609375 136.578125 C-49.74890823 136.7144635 -48.75172272 136.850802 -47.72431946 136.99127197 C-43.60550281 137.55325726 -39.48692962 138.11478872 -35.36401367 138.64599609 C-5.58396508 142.50773619 24.15689161 150.36069037 44.61328125 173.84765625 C54.9519707 187.50284837 60.05337313 202.2774233 63 219 C63.17200928 219.93408691 63.34401855 220.86817383 63.52124023 221.83056641 C67.6057608 248.87046744 62.34337574 277.76518763 46.04418945 299.97851562 C38.74698237 309.46256566 30.23961458 317.74483796 20 324 C19.4332959 324.3515918 18.8665918 324.70318359 18.28271484 325.06542969 C9.41455503 330.51311309 0.53916852 334.58744422 -9.35546875 337.80859375 C-12.84275787 338.89001596 -12.84275787 338.89001596 -15.5 340.06640625 C-18.86275743 341.32218598 -22.28706148 341.90644791 -25.8125 342.5 C-26.79379883 342.67595703 -26.79379883 342.67595703 -27.79492188 342.85546875 C-30.19246098 343.27029877 -32.59344761 343.64081308 -35 344 C-36.16168701 344.17354004 -37.32337402 344.34708008 -38.52026367 344.52587891 C-48.60263269 345.91607757 -58.51484805 346.4014412 -68.6875 346.375 C-69.48381836 346.37445618 -70.28013672 346.37391235 -71.10058594 346.37335205 C-99.9861383 346.28355166 -127.89493611 341.73204567 -154 329 C-154.969375 328.52949219 -155.93875 328.05898438 -156.9375 327.57421875 C-167.46986754 322.13963957 -177.04399988 314.99411594 -185.875 307.125 C-186.39312256 306.67294189 -186.91124512 306.22088379 -187.44506836 305.75512695 C-188.8671875 304.4453125 -188.8671875 304.4453125 -191 302 C-191 298 -191 298 -189.40551758 295.92449951 C-188.65939209 295.18725647 -187.9132666 294.45001343 -187.14453125 293.69042969 C-186.30365967 292.84986023 -185.46278809 292.00929077 -184.59643555 291.14324951 C-183.21838745 289.79616913 -183.21838745 289.79616913 -181.8125 288.421875 C-180.88026611 287.4953009 -179.94803223 286.56872681 -178.98754883 285.61407471 C-176.51055916 283.15234825 -174.02179297 280.70286984 -171.53039551 278.2557373 C-168.98961397 275.75589362 -166.46013618 273.24466991 -163.9296875 270.734375 C-158.96413889 265.81170925 -153.98605825 260.90188846 -149 256 C-147.72180082 256.95607966 -146.44395577 257.91263277 -145.16625977 258.86938477 C-144.09880272 259.66832909 -144.09880272 259.66832909 -143.00978088 260.4834137 C-141.43981785 261.66811221 -139.88645192 262.87481384 -138.33984375 264.08984375 C-127.53569609 272.39937521 -115.20740748 277.74337898 -102 281 C-100.82953125 281.2990625 -99.6590625 281.598125 -98.453125 281.90625 C-87.68714452 284.30920171 -76.78872705 284.31960478 -65.8125 284.375 C-64.66308426 284.38678284 -64.66308426 284.38678284 -63.490448 284.39880371 C-50.07309414 284.50566775 -36.56246353 283.76921614 -24.5 277.25 C-23.83129883 276.90001953 -23.16259766 276.55003906 -22.47363281 276.18945312 C-14.41489764 271.81391994 -9.38341657 266.57880505 -6 258 C-5.46052734 256.64841797 -5.46052734 256.64841797 -4.91015625 255.26953125 C-3.82933161 251.38691225 -3.69733849 247.74558013 -3.75 243.75 C-3.75821777 242.99710693 -3.76643555 242.24421387 -3.77490234 241.46850586 C-3.99295214 230.57187778 -5.82003151 221.30411964 -13.75 213.21484375 C-28.38161416 201.29617472 -49.06583491 200.85936846 -66.97241211 198.60449219 C-98.4717367 194.60625826 -128.35405089 189.45748717 -153 168 C-153.61359375 167.48179687 -154.2271875 166.96359375 -154.859375 166.4296875 C-165.14160218 157.04361773 -171.02313568 144.08041881 -175 131 C-175.21027832 130.32549805 -175.42055664 129.65099609 -175.63720703 128.95605469 C-181.19488096 110.41287343 -180.88210408 89.66189569 -176 71 C-175.73316406 69.91332031 -175.46632813 68.82664062 -175.19140625 67.70703125 C-167.93247742 41.22000651 -150.16797605 21.33504957 -126.65893555 7.83154297 C-117.85392645 2.97208138 -108.70546677 -0.41524413 -99 -3 C-98.20819336 -3.21172852 -97.41638672 -3.42345703 -96.60058594 -3.64160156 C-66.64635983 -11.168928 -29.23692622 -9.88791422 0 0 Z " fill="#50575D" transform="translate(878,545)"/>
<path d="M0 0 C22.44 0 44.88 0 68 0 C68 114.51 68 229.02 68 347 C45.56 347 23.12 347 0 347 C0 232.49 0 117.98 0 0 Z " fill="#50575D" transform="translate(568,541)"/>
<path d="M0 0 C22.44 0 44.88 0 68 0 C68 114.51 68 229.02 68 347 C45.56 347 23.12 347 0 347 C0 232.49 0 117.98 0 0 Z " fill="#4F565C" transform="translate(98,541)"/>
<path d="M0 0 C10.79779076 8.58696714 18.08098075 18.37936522 20.0625 32.25 C132.9225 32.25 245.7825 32.25 362.0625 32.25 C362.0625 38.52 362.0625 44.79 362.0625 51.25 C249.2025 51.25 136.3425 51.25 20.0625 51.25 C19.4025 54.22 18.7425 57.19 18.0625 60.25 C13.50806602 72.96217516 3.38331879 82.38954124 -8.39453125 88.53125 C-19.52222362 93.69833767 -33.86070692 94.17779423 -45.734375 91.34375 C-48.64109806 90.16901218 -51.2518255 88.86310719 -53.9375 87.25 C-54.74058594 86.79238281 -55.54367188 86.33476562 -56.37109375 85.86328125 C-68.66034819 78.29906899 -76.77128824 67.27291424 -80.50537109 53.33349609 C-83.25914452 40.05626309 -81.06500133 27.09219945 -74.29296875 15.4140625 C-72.62215898 12.90219048 -70.86236732 10.57153195 -68.9375 8.25 C-68.41542969 7.61578125 -67.89335938 6.9815625 -67.35546875 6.328125 C-50.14621025 -12.59787219 -20.53124359 -14.08178572 0 0 Z " fill="#50575D" transform="translate(161.9375,396.75)"/>
<path d="M0 0 C10.32515314 7.20778579 18.72219196 18.47192929 21.25390625 31 C22.93928965 47.26528739 20.73416352 62.23325527 10.15625 75.26171875 C3.4425597 82.49868197 -3.41061161 86.64127519 -12.5 90.375 C-13.4075 90.75785156 -14.315 91.14070313 -15.25 91.53515625 C-19.90415088 92.73785149 -24.39762043 92.75767544 -29.1875 92.75 C-30.17049072 92.74911377 -31.15348145 92.74822754 -32.16625977 92.74731445 C-39.30901839 92.63058916 -45.0805375 91.61179475 -51.5 88.375 C-53.83079015 87.36908662 -56.16391479 86.3685544 -58.5 85.375 C-59.07105469 85.9482753 -59.64210938 86.5215506 -60.23046875 87.11219788 C-65.64096877 92.54282464 -71.05393706 97.97097394 -76.46961975 103.39643192 C-79.25306379 106.18507064 -82.03557996 108.97462164 -84.81591797 111.76635742 C-87.50451934 114.46591003 -90.19563298 117.16293547 -92.88842773 119.85830498 C-93.90982935 120.88153897 -94.93035799 121.90564523 -95.94995117 122.93068123 C-101.01864338 128.02532584 -106.12624338 133.00623254 -111.5847168 137.68556213 C-115.19184748 140.86734912 -118.54976745 144.3029703 -121.9375 147.71484375 C-122.70304199 148.48180069 -123.46858398 149.24875763 -124.25732422 150.03895569 C-126.67393197 152.46110881 -129.08701726 154.88673612 -131.5 157.3125 C-133.14950686 158.96702893 -134.79924429 160.62132802 -136.44921875 162.27539062 C-140.46881371 166.30594202 -144.48553169 170.33934272 -148.5 174.375 C-152.35027991 172.59299313 -154.7799142 170.29824595 -157.75 167.25 C-158.64203125 166.33992187 -159.5340625 165.42984375 -160.453125 164.4921875 C-161.46632813 163.44417969 -161.46632813 163.44417969 -162.5 162.375 C-160.91783539 158.49533986 -158.27972458 155.87852556 -155.35107422 152.9831543 C-154.82718613 152.45736786 -154.30329803 151.93158142 -153.76353455 151.38986206 C-152.03209835 149.65472517 -150.29356989 147.92689082 -148.5546875 146.19921875 C-147.34323237 144.9889568 -146.13214785 143.77832377 -144.92141724 142.56733704 C-142.38070603 140.02818992 -139.83667261 137.49243554 -137.29003906 134.95922852 C-134.04382323 131.72992058 -130.80414609 128.49415202 -127.56675529 125.25599957 C-125.06358033 122.75309824 -122.55779375 120.25282521 -120.05115128 117.75339699 C-118.85699947 116.56240426 -117.66343203 115.37082528 -116.47048569 114.17862511 C-110.86073838 108.57622007 -105.25314126 103.02782692 -99.22195435 97.87358093 C-96.43732309 95.45017446 -93.84586166 92.84501949 -91.25 90.22265625 C-90.70641846 89.67765976 -90.16283691 89.13266327 -89.6027832 88.57115173 C-87.89945185 86.86230783 -86.19966674 85.14998803 -84.5 83.4375 C-83.33226626 82.26473991 -82.16429926 81.09221202 -80.99609375 79.91992188 C-78.16136766 77.07428311 -75.32981176 74.22552547 -72.5 71.375 C-72.83990967 70.64837158 -73.17981934 69.92174316 -73.5300293 69.1730957 C-79.98282769 55.21428889 -83.32639227 41.16365523 -78.53125 26.0234375 C-72.75918487 11.19972479 -63.04885479 0.93494866 -48.765625 -5.94140625 C-32.53245653 -12.37637773 -14.50764382 -8.93166246 0 0 Z " fill="#51585D" transform="translate(812.5,215.625)"/>
<path d="M0 0 C11.41643576 7.96958866 18.95751459 19.68469392 21.5 33.375 C22.85468117 44.4988902 21.35477603 53.89242517 16.91015625 64.1171875 C15.29052269 67.65566411 15.29052269 67.65566411 14.5 71.375 C15.75979082 73.37876349 15.75979082 73.37876349 17.75852966 75.23480225 C18.50601471 75.98916061 19.25349976 76.74351898 20.02363586 77.52073669 C20.85944687 78.33857132 21.69525787 79.15640594 22.55639648 79.99902344 C23.42431824 80.86767532 24.29223999 81.73632721 25.1864624 82.63130188 C27.57225185 85.0141997 29.96861575 87.38544769 32.37029529 89.75226498 C34.87629158 92.22705577 37.36818395 94.715964 39.86158752 97.20343018 C44.58679155 101.91307866 49.32459919 106.60983468 54.06703192 111.30212712 C59.46487636 116.6441313 64.84857064 122.00029926 70.23110473 127.35772276 C81.30503231 138.37935344 92.39665498 149.38300069 103.5 160.375 C101.82450239 163.95472889 99.84765073 166.23555984 97 169 C96.2059375 169.77601563 95.411875 170.55203125 94.59375 171.3515625 C93.9028125 172.01929688 93.211875 172.68703125 92.5 173.375 C91.84 174.035 91.18 174.695 90.5 175.375 C89.57815918 174.45093857 88.65631836 173.52687714 87.70654297 172.57481384 C78.99971825 163.84767799 70.29022429 155.12321379 61.57814026 146.40132809 C57.09974829 141.91772752 52.62228722 137.43320565 48.14697266 132.9465332 C43.82441494 128.61307457 39.49938722 124.28209514 35.17266846 119.95279121 C33.5260683 118.30434977 31.88034549 116.65503145 30.23553467 115.00480461 C27.92369441 112.68565826 25.60869526 110.36970834 23.29296875 108.05444336 C22.28415398 107.04023567 22.28415398 107.04023567 21.25495911 106.00553894 C17.37364614 102.13253597 13.38286496 98.4469408 9.22322083 94.87392521 C7.05271012 92.98592968 5.0156303 90.9891237 3 88.9375 C2.3296875 88.25816406 1.659375 87.57882812 0.96875 86.87890625 C0.4840625 86.38261719 -0.000625 85.88632812 -0.5 85.375 C-1.53640625 85.79652344 -2.5728125 86.21804688 -3.640625 86.65234375 C-5.01036091 87.20586716 -6.38015568 87.75924494 -7.75 88.3125 C-8.43191406 88.59029297 -9.11382812 88.86808594 -9.81640625 89.15429688 C-20.94877376 93.63966825 -35.87642826 94.75329977 -47.28515625 90.40234375 C-48.38150391 89.89380859 -48.38150391 89.89380859 -49.5 89.375 C-50.38558594 88.98441406 -51.27117187 88.59382813 -52.18359375 88.19140625 C-65.34271397 81.74873019 -74.06342917 70.8536977 -78.875 57.1875 C-82.77691973 43.31037963 -80.95298382 28.55318937 -74.12890625 15.8828125 C-66.6450364 4.36088338 -56.11738921 -3.96195858 -42.94921875 -7.97265625 C-27.63300513 -10.86938068 -13.24526193 -8.1544743 0 0 Z " fill="#51585D" transform="translate(449.5,215.625)"/>
<path d="M0 0 C7.9285039 5.57811408 13.52957675 12.37844322 17.859375 21.01171875 C18.48005859 22.18734375 18.48005859 22.18734375 19.11328125 23.38671875 C23.76911555 33.76906702 23.9112944 49.10742884 19.90625 59.78125 C12.4408012 75.68711293 2.50700699 85.72501169 -14.140625 92.01171875 C-24.26804905 94.97936413 -39.1829016 94.70643134 -48.76171875 90.33984375 C-49.54675781 89.9015625 -50.33179688 89.46328125 -51.140625 89.01171875 C-52.08035156 88.4909375 -53.02007813 87.97015625 -53.98828125 87.43359375 C-65.06204501 80.81616291 -71.7553021 72.72324856 -77.140625 61.01171875 C-78.130625 56.55671875 -78.130625 56.55671875 -79.140625 52.01171875 C-121.710625 52.01171875 -164.280625 52.01171875 -208.140625 52.01171875 C-208.140625 45.74171875 -208.140625 39.47171875 -208.140625 33.01171875 C-165.570625 32.68171875 -123.000625 32.35171875 -79.140625 32.01171875 C-78.150625 28.71171875 -77.160625 25.41171875 -76.140625 22.01171875 C-69.88138974 8.55159338 -59.35267172 -0.94862292 -45.640625 -6.42578125 C-30.12023272 -11.1203458 -13.59559681 -8.40038818 0 0 Z " fill="#50575D" transform="translate(887.140625,395.98828125)"/>
<path d="M0 0 C11.64648521 8.92641794 18.67291013 19.52066395 22.0625 33.6953125 C23.67324748 49.80278731 19.81363288 64.45184674 9.49609375 77.12890625 C1.47095357 85.70526818 -7.39974438 89.07856063 -18.625 92.8203125 C-18.955 135.0603125 -19.285 177.3003125 -19.625 220.8203125 C-25.895 220.8203125 -32.165 220.8203125 -38.625 220.8203125 C-38.625 178.5803125 -38.625 136.3403125 -38.625 92.8203125 C-41.265 92.1603125 -43.905 91.5003125 -46.625 90.8203125 C-59.68977558 85.72471588 -69.19477195 77.28671563 -75.625 64.8203125 C-76.83313956 61.86014767 -77.78996531 58.90351752 -78.625 55.8203125 C-79.12 54.3353125 -79.12 54.3353125 -79.625 52.8203125 C-79.88083527 49.47080867 -79.8564076 46.11606459 -79.875 42.7578125 C-79.895625 41.85353516 -79.91625 40.94925781 -79.9375 40.01757812 C-80.01556889 26.36528161 -74.6324284 15.8390998 -65.3125 6.0078125 C-47.43768576 -10.90079557 -20.79862246 -13.61488773 0 0 Z " fill="#50575D" transform="translate(630.625,140.1796875)"/>
<path d="M0 0 C17.386875 -0.12375 17.386875 -0.12375 35.125 -0.25 C40.57217529 -0.30462402 40.57217529 -0.30462402 46.12939453 -0.36035156 C50.63647461 -0.37841797 50.63647461 -0.37841797 52.76046753 -0.3817749 C54.21323581 -0.38783289 55.66598671 -0.40172112 57.11862183 -0.42230225 C73.49831356 -0.64234216 89.75993157 2.41796152 102.18359375 13.98828125 C107.65804722 20.05138563 110.88540799 27.18057344 113 35 C113.18175781 35.61617187 113.36351562 36.23234375 113.55078125 36.8671875 C116.03766741 48.67449047 113.3373876 61.37997414 107.42578125 71.765625 C99.17515615 83.07417408 87.30750622 88.6653893 74 92 C71.47512448 92.16632086 68.94268634 92.23570149 66.41235352 92.22705078 C65.31083529 92.22741239 65.31083529 92.22741239 64.18706417 92.2277813 C61.83421713 92.22630076 59.48169583 92.21112665 57.12890625 92.1953125 C55.66662753 92.19236814 54.20434669 92.19033012 52.74206543 92.18920898 C47.34884459 92.17876712 41.95566902 92.15084458 36.5625 92.125 C24.496875 92.08375 12.43125 92.0425 0 92 C0 61.64 0 31.28 0 0 Z " fill="#FCFCFC" transform="translate(315,601)"/>
<path d="M0 0 C0.82113281 -0.01224609 1.64226563 -0.02449219 2.48828125 -0.03710938 C15.53479434 -0.06812327 28.52907696 5.16956082 38.01171875 14.24609375 C48.08739715 25.49915479 53.35845917 38.18444286 52.99609375 53.33984375 C51.75346053 67.71888533 45.39295779 80.4860993 34.75 90.1875 C21.9783281 100.31541638 7.62763864 102.80653274 -8.25 101.1875 C-16.71377124 99.63435435 -23.4997379 96.45989406 -30.25 91.1875 C-30.85199219 90.75953125 -31.45398438 90.3315625 -32.07421875 89.890625 C-40.94489047 83.11303312 -47.31525575 72.10671286 -49.25 61.1875 C-50.69541622 46.1945331 -49.32504921 32.5766306 -39.97265625 20.265625 C-37.86170749 17.71908364 -35.71026997 15.40174298 -33.25 13.1875 C-32.55390625 12.48560547 -32.55390625 12.48560547 -31.84375 11.76953125 C-22.96241855 3.30179122 -11.91811907 0.00918191 0 0 Z " fill="#C20F1B" transform="translate(600.25,387.8125)"/>
</svg>
